<svg xmlns="http://www.w3.org/2000/svg" width="154.553" height="40" viewBox="0 0 154.553 40">
  <defs>
    <style>
      .cls-1 {
        fill: #f87f9c;
        font-size: 32px;
        font-family: Jalnan;
      }

      .cls-2 {
        fill: #cf506f;
      }
    </style>
  </defs>
  <g id="그룹_9" data-name="그룹 9" transform="translate(-94.231 -101.13)">
    <g id="그룹_6" data-name="그룹 6" transform="translate(94.231 101.13)">
      <g id="그룹_4" data-name="그룹 4" transform="translate(47.553 3.364)">
        <text id="여기덕" class="cls-1" transform="translate(0 28)"><tspan x="0" y="0">여기</tspan><tspan class="cls-2" y="0">덕!</tspan></text>
      </g>
      <g id="그룹_7" data-name="그룹 7" transform="translate(0)">
        <path id="빼기_4" data-name="빼기 4" class="cls-2" d="M9.319,14.75h0A19.038,19.038,0,0,0,5.671,14.1s-.01-.006-.024-.006a3.242,3.242,0,0,0-.437.092h0c-.172.042-.406.1-.668.155a9.714,9.714,0,0,1-2.022.248A2.632,2.632,0,0,1,.067,13.534c-.343-.652.776-1.313,1.961-2.015h0c1.157-.685,2.352-1.392,2.352-2.167A9.312,9.312,0,1,1,23,9.352a9.555,9.555,0,0,1-.082,1.252,28.527,28.527,0,0,0-3.477.3,26.758,26.758,0,0,0-3.945.9,24.252,24.252,0,0,0-3.57,1.422,21.473,21.473,0,0,0-2.61,1.527ZM9.133,5.9a.687.687,0,0,0-.622.737.687.687,0,0,0,.622.737.687.687,0,0,0,.622-.737.687.687,0,0,0-.622-.737Z" transform="translate(-0.004 -0.003)"/>
        <path id="제외_5" data-name="제외 5" class="cls-2" d="M19.076,27.982a25.024,25.024,0,0,1-7.425-1.1,21.994,21.994,0,0,1-3.24-1.29,19.184,19.184,0,0,1-2.823-1.71,16.172,16.172,0,0,1-2.329-2.072A13.424,13.424,0,0,1,1.5,19.433,11.408,11.408,0,0,1,.388,16.806a10.457,10.457,0,0,1,0-5.641A11.408,11.408,0,0,1,1.5,8.539,13.424,13.424,0,0,1,3.258,6.161,16.171,16.171,0,0,1,5.588,4.09,19.184,19.184,0,0,1,8.411,2.38a21.993,21.993,0,0,1,3.24-1.29,25.615,25.615,0,0,1,14.849,0,21.993,21.993,0,0,1,3.241,1.294,19.184,19.184,0,0,1,2.823,1.71,16.17,16.17,0,0,1,2.329,2.072,13.424,13.424,0,0,1,1.759,2.377,11.408,11.408,0,0,1,1.111,2.627,10.457,10.457,0,0,1,0,5.641,11.408,11.408,0,0,1-1.111,2.627,13.423,13.423,0,0,1-1.759,2.377,16.172,16.172,0,0,1-2.329,2.072,18.773,18.773,0,0,1-1.909,1.227,14.467,14.467,0,0,1-3.165-4.452,4.8,4.8,0,0,0,.4-.581,5.027,5.027,0,0,0,.643-1.868,5.444,5.444,0,0,0-.1-2.025,5.72,5.72,0,0,0-.878-1.949c-.031-.044-.063-.089-.1-.135-.014-.024-.03-.047-.045-.068l-4.322-6.2a1.407,1.407,0,0,0-1.155-.6,1.391,1.391,0,0,0-.794.247l5.079,7.284a.742.742,0,1,1-1.214.855l-5.08-7.285-1.214.855,5.1,7.318a.7.7,0,1,1-1.143.8L17.572,9.993l-1.214.852,5.1,7.321a.7.7,0,1,1-1.143.8l-5.1-7.318a1.42,1.42,0,0,0-.336,1.958l4.324,6.2c.016.022.033.045.049.066.03.046.062.092.093.137a5.7,5.7,0,0,0,1.524,1.5,5.384,5.384,0,0,0,1.861.788,5.107,5.107,0,0,0,1.066.114,4.892,4.892,0,0,0,.9-.084,4.747,4.747,0,0,0,.733-.2,9.861,9.861,0,0,1,1.654,1.8,20.683,20.683,0,0,1,1.4,2.236c-.638.267-1.306.509-1.979.718a25.023,25.023,0,0,1-7.425,1.1Z" transform="translate(4.6 12.017)"/>
      </g>
    </g>
  </g>
</svg>
